<svg width="36" height="36" viewBox="0 0 36 36" fill="none" xmlns="http://www.w3.org/2000/svg">
<rect x="0.875198" y="0.756836" width="34.3693" height="34.3693" rx="12.2748" fill="#393939"/>
<path d="M23.8351 17.6843L18.3115 12.1607C18.0906 11.9397 17.7837 11.8047 17.4461 11.8047H13.15C12.8244 11.8047 12.5122 11.934 12.282 12.1642C12.0518 12.3944 11.9225 12.7066 11.9225 13.0322V17.3283C11.9225 17.6659 12.0575 17.9728 12.2846 18.1998L17.8082 23.7235C18.0292 23.9444 18.3361 24.0795 18.6736 24.0795C19.0112 24.0795 19.318 23.9444 19.539 23.7173L23.8351 19.4212C24.0622 19.2002 24.1973 18.8934 24.1973 18.5558C24.1973 18.2183 24.0561 17.9052 23.8351 17.6843ZM14.0706 14.8734C13.8264 14.8734 13.5922 14.7764 13.4196 14.6037C13.247 14.4311 13.15 14.1969 13.15 13.9528C13.15 13.7086 13.247 13.4745 13.4196 13.3018C13.5922 13.1292 13.8264 13.0322 14.0706 13.0322C14.3147 13.0322 14.5489 13.1292 14.7215 13.3018C14.8942 13.4745 14.9912 13.7086 14.9912 13.9528C14.9912 14.1969 14.8942 14.4311 14.7215 14.6037C14.5489 14.7764 14.3147 14.8734 14.0706 14.8734V14.8734ZM21.2943 19.949L18.6736 22.5697L16.0529 19.949C15.7768 19.6667 15.6049 19.2862 15.6049 18.8627C15.6049 18.4557 15.7666 18.0655 16.0543 17.7777C16.3421 17.49 16.7323 17.3283 17.1393 17.3283C17.5627 17.3283 17.9494 17.5002 18.2256 17.7825L18.6736 18.2244L19.1216 17.7764C19.3978 17.5002 19.7845 17.3283 20.208 17.3283C20.6149 17.3283 21.0052 17.49 21.2929 17.7777C21.5806 18.0655 21.7423 18.4557 21.7423 18.8627C21.7423 19.2862 21.5705 19.6728 21.2943 19.949Z" fill="white"/>
</svg>
