<svg width="56" height="56" viewBox="0 0 56 56" fill="none" xmlns="http://www.w3.org/2000/svg">
<rect width="56" height="56" rx="12" fill="#161517" fill-opacity="0.5"/>
<path d="M30.2 18H20C19.4696 18 18.9609 18.2107 18.5858 18.5858C18.2107 18.9609 18 19.4696 18 20V38L22 34H36C36.5304 34 37.0391 33.7893 37.4142 33.4142C37.7893 33.0391 38 32.5304 38 32V25.8C34.0817 25.0046 30.9954 21.9183 30.2 18Z" fill="#F8F9FD"/>
<path d="M38 21.6586V20C38 18.89 37.1 18 36 18H34.3414L34.3428 18.0039C34.9059 19.5935 36.12 20.8752 37.6645 21.5285C37.7747 21.5751 37.8866 21.6185 38 21.6586Z" fill="#F8F9FD"/>
<path d="M34 16C34 12.6863 36.6863 10 40 10C43.3137 10 46 12.6863 46 16C46 19.3137 43.3137 22 40 22C36.6863 22 34 19.3137 34 16Z" fill="#0F62FF"/>
</svg>
