<svg width="207" height="30" viewBox="0 0 207 30" fill="none" xmlns="http://www.w3.org/2000/svg">
<rect x="0.554016" y="0.164062" width="205.602" height="29.7297" rx="7.36486" fill="#C6C6C6"/>
<path d="M67.1882 18.652C69.6186 18.652 70.932 17.3755 70.932 15.3379V15.2274H68.968V15.2888C68.968 16.4671 68.477 16.8722 67.1759 16.8722C65.7889 16.8722 65.2119 16.3689 65.2119 14.4172C65.2119 12.4656 65.7889 11.9623 67.1759 11.9623C68.477 11.9623 68.968 12.3674 68.968 13.5457V13.6071H70.932V13.4966C70.932 11.459 69.6186 10.1825 67.1882 10.1825C64.721 10.1825 63.248 11.8518 63.248 14.4172C63.248 16.9827 64.721 18.652 67.1882 18.652ZM74.8406 18.652C76.8169 18.652 77.9707 17.4 77.9707 15.4483C77.9707 13.4844 76.8169 12.2323 74.8406 12.2323C72.8521 12.2323 71.6738 13.4844 71.6738 15.4483C71.6738 17.4 72.8521 18.652 74.8406 18.652ZM74.8406 17.0318C73.8341 17.0318 73.4904 16.639 73.4904 15.4483C73.4904 14.2454 73.8341 13.8526 74.8406 13.8526C75.8349 13.8526 76.1786 14.2454 76.1786 15.4483C76.1786 16.639 75.8349 17.0318 74.8406 17.0318ZM80.6402 18.5293V15.031C80.6402 14.0981 81.0207 13.8158 81.9045 13.8158C82.8374 13.8158 83.1197 14.1227 83.1197 14.9819V18.5293H84.9609V14.6136C84.9609 13.3002 84.2735 12.2323 82.6655 12.2323C81.5853 12.2323 80.9225 12.7356 80.5911 13.4353H80.5174V12.3551H78.8112V18.5293H80.6402ZM88.8392 18.5538C89.2689 18.5538 89.7476 18.4925 90.0422 18.4311V16.8968H89.2811C88.4833 16.8968 88.2992 16.8354 88.2992 16.2953V13.8772H90.0422V12.3551H88.2992V10.9189H86.8507L86.507 12.3551H85.476V13.8772H86.4579V16.504C86.4579 17.9647 87.2313 18.5538 88.8392 18.5538ZM92.601 11.6554V10.3052H90.772L90.7966 11.6554H92.601ZM92.6378 18.5293V12.3551H90.7966V18.5293H92.6378ZM95.4922 18.5293V15.031C95.4922 14.0981 95.8727 13.8158 96.7565 13.8158C97.6894 13.8158 97.9717 14.1227 97.9717 14.9819V18.5293H99.8129V14.6136C99.8129 13.3002 99.1255 12.2323 97.5175 12.2323C96.4373 12.2323 95.7745 12.7356 95.4431 13.4353H95.3694V12.3551H93.6632V18.5293H95.4922ZM103.15 18.652C104.23 18.652 104.881 18.1611 105.224 17.4491H105.286V18.5293H106.992V12.3551H105.163V15.8534C105.163 16.7863 104.783 17.0686 103.899 17.0686C102.978 17.0686 102.684 16.7617 102.684 15.9025V12.3551H100.855V16.2707C100.855 17.5841 101.53 18.652 103.15 18.652ZM110.956 18.652C112.724 18.652 113.853 17.8787 113.853 16.5653V16.4426H112.036V16.5162C112.036 16.8968 111.717 17.0563 110.981 17.0563C109.974 17.0563 109.63 16.7126 109.593 15.8534H113.828C113.865 15.6447 113.914 15.2888 113.914 14.9451C113.914 13.3371 112.822 12.2323 110.968 12.2323C109.041 12.2323 107.863 13.4844 107.863 15.4606C107.863 17.4123 108.832 18.652 110.956 18.652ZM110.907 13.7421C111.766 13.7421 112.183 14.0981 112.147 14.7364H109.606C109.679 14.0858 110.023 13.7421 110.907 13.7421ZM120.729 18.5047C119.366 17.0195 119.207 16.2707 119.207 14.4172C119.207 12.5638 119.366 11.815 120.729 10.3298L119.796 9.42142C118.495 10.5139 117.181 12.0237 117.181 14.4172C117.181 16.8108 118.495 18.3206 119.796 19.4131L120.729 18.5047ZM124.943 18.5293V10.3052H123.274C122.881 11.0417 122.402 11.324 121.629 11.324H121.261V12.6374H123.114V18.5293H124.943ZM127.481 18.7748L131.9 10.0597H129.961L125.542 18.7748H127.481ZM135.443 18.652C137.518 18.652 138.831 17.8665 138.831 16.2707C138.831 15.0555 138.119 14.3436 136.941 14.2331V14.1595C138.021 14.0367 138.487 13.3739 138.487 12.4042C138.487 10.9312 137.309 10.1825 135.369 10.1825C133.258 10.1825 132.043 11.189 132.043 12.8215V12.9566H133.847V12.8461C133.847 12.0973 134.228 11.8764 135.32 11.8764C136.18 11.8764 136.646 12.0973 136.646 12.7479C136.646 13.4107 136.364 13.558 135.627 13.558H134.093V15.0555H135.824C136.621 15.0555 136.965 15.2151 136.965 16.0252C136.965 16.7863 136.45 16.9581 135.443 16.9581C134.13 16.9581 133.847 16.7372 133.847 15.9884V15.7429H132.043V16.013C132.043 17.6455 132.964 18.652 135.443 18.652ZM139.445 10.3298C140.808 11.815 140.967 12.5638 140.967 14.4172C140.967 16.2707 140.808 17.0195 139.445 18.5047L140.378 19.4131C141.679 18.3206 142.993 16.8108 142.993 14.4172C142.993 12.0237 141.679 10.5139 140.378 9.42142L139.445 10.3298Z" fill="#8D8D8D"/>
</svg>
