<svg width="56" height="56" viewBox="0 0 56 56" fill="none" xmlns="http://www.w3.org/2000/svg">
<rect width="56" height="56" rx="12" fill="#161517" fill-opacity="0.5"/>
<path d="M37.41 27.58L28.41 18.58C28.05 18.22 27.55 18 27 18H20C19.4696 18 18.9609 18.2107 18.5858 18.5858C18.2107 18.9609 18 19.4696 18 20V27C18 27.55 18.22 28.05 18.59 28.42L27.59 37.42C27.95 37.78 28.45 38 29 38C29.55 38 30.05 37.78 30.41 37.41L37.41 30.41C37.78 30.05 38 29.55 38 29C38 28.45 37.77 27.94 37.41 27.58ZM21.5 23C21.1022 23 20.7206 22.842 20.4393 22.5607C20.158 22.2794 20 21.8978 20 21.5C20 21.1022 20.158 20.7206 20.4393 20.4393C20.7206 20.158 21.1022 20 21.5 20C21.8978 20 22.2794 20.158 22.5607 20.4393C22.842 20.7206 23 21.1022 23 21.5C23 21.8978 22.842 22.2794 22.5607 22.5607C22.2794 22.842 21.8978 23 21.5 23ZM33.27 31.27L29 35.54L24.73 31.27C24.28 30.81 24 30.19 24 29.5C24 28.837 24.2634 28.2011 24.7322 27.7322C25.2011 27.2634 25.837 27 26.5 27C27.19 27 27.82 27.28 28.27 27.74L29 28.46L29.73 27.73C30.18 27.28 30.81 27 31.5 27C32.163 27 32.7989 27.2634 33.2678 27.7322C33.7366 28.2011 34 28.837 34 29.5C34 30.19 33.72 30.82 33.27 31.27Z" fill="#F8F9FD"/>
</svg>
