<svg width="18" height="18" viewBox="0 0 18 18" fill="none" xmlns="http://www.w3.org/2000/svg">
<path d="M8.86363 15.5588C7.12738 15.5588 5.46224 14.8691 4.23452 13.6414C3.00681 12.4137 2.31709 10.7485 2.31709 9.01228C2.31709 7.27603 3.00681 5.61089 4.23452 4.38318C5.46224 3.15546 7.12738 2.46574 8.86363 2.46574C10.5999 2.46574 12.265 3.15546 13.4927 4.38318C14.7204 5.61089 15.4102 7.27603 15.4102 9.01228C15.4102 10.7485 14.7204 12.4137 13.4927 13.6414C12.265 14.8691 10.5999 15.5588 8.86363 15.5588ZM8.86363 0.829102C7.789 0.829102 6.72489 1.04077 5.73206 1.45201C4.73923 1.86325 3.83713 2.46602 3.07725 3.2259C1.5426 4.76054 0.68045 6.84197 0.68045 9.01228C0.68045 11.1826 1.5426 13.264 3.07725 14.7987C3.83713 15.5585 4.73923 16.1613 5.73206 16.5726C6.72489 16.9838 7.789 17.1955 8.86363 17.1955C11.0339 17.1955 13.1154 16.3333 14.65 14.7987C16.1847 13.264 17.0468 11.1826 17.0468 9.01228C17.0468 7.93765 16.8351 6.87354 16.4239 5.88071C16.0127 4.88788 15.4099 3.98578 14.65 3.2259C13.8901 2.46602 12.988 1.86325 11.9952 1.45201C11.0024 1.04077 9.93826 0.829102 8.86363 0.829102ZM8.86363 4.92069C7.77847 4.92069 6.73776 5.35177 5.97044 6.11909C5.20312 6.88641 4.77204 7.92712 4.77204 9.01228C4.77204 10.0974 5.20312 11.1381 5.97044 11.9055C6.73776 12.6728 7.77847 13.1039 8.86363 13.1039C9.94879 13.1039 10.9895 12.6728 11.7568 11.9055C12.5241 11.1381 12.9552 10.0974 12.9552 9.01228C12.9552 7.92712 12.5241 6.88641 11.7568 6.11909C10.9895 5.35177 9.94879 4.92069 8.86363 4.92069Z" fill="#F8F9FD"/>
</svg>
