<svg width="17" height="18" viewBox="0 0 17 18" fill="none" xmlns="http://www.w3.org/2000/svg">
<path d="M8.79152 15.5588C7.05526 15.5588 5.39013 14.8691 4.16241 13.6414C2.9347 12.4137 2.24497 10.7485 2.24497 9.01228C2.24497 7.27603 2.9347 5.61089 4.16241 4.38318C5.39013 3.15546 7.05526 2.46574 8.79152 2.46574C10.5278 2.46574 12.1929 3.15546 13.4206 4.38318C14.6483 5.61089 15.3381 7.27603 15.3381 9.01228C15.3381 10.7485 14.6483 12.4137 13.4206 13.6414C12.1929 14.8691 10.5278 15.5588 8.79152 15.5588ZM8.79152 0.829102C7.71689 0.829102 6.65278 1.04077 5.65995 1.45201C4.66712 1.86325 3.76501 2.46602 3.00514 3.2259C1.47049 4.76054 0.608337 6.84197 0.608337 9.01228C0.608337 11.1826 1.47049 13.264 3.00514 14.7987C3.76501 15.5585 4.66712 16.1613 5.65995 16.5726C6.65278 16.9838 7.71689 17.1955 8.79152 17.1955C10.9618 17.1955 13.0433 16.3333 14.5779 14.7987C16.1125 13.264 16.9747 11.1826 16.9747 9.01228C16.9747 7.93765 16.763 6.87354 16.3518 5.88071C15.9405 4.88788 15.3378 3.98578 14.5779 3.2259C13.818 2.46602 12.9159 1.86325 11.9231 1.45201C10.9303 1.04077 9.86615 0.829102 8.79152 0.829102Z" fill="#0F62FF"/>
</svg>
