<svg width="206" height="30" viewBox="0 0 206 30" fill="none" xmlns="http://www.w3.org/2000/svg">
<rect x="0.198883" y="0.237305" width="205.602" height="29.7297" rx="7.36486" fill="#393939"/>
<path d="M93.1121 18.7253C95.4443 18.7253 96.3281 17.5469 96.3281 16.2335C96.3281 15.0306 95.7389 14.1222 94.0082 13.7908L92.5475 13.5085C91.59 13.3244 91.3691 13.2016 91.3691 12.6738C91.3691 12.1583 91.7005 11.9251 92.7561 11.9251C93.9713 11.9251 94.3273 12.2074 94.3273 13.0666V13.2016H96.144V13.1034C96.144 11.4709 95.162 10.2557 92.8175 10.2557C90.4608 10.2557 89.5402 11.4954 89.5402 12.7475C89.5402 14.0241 90.203 14.8219 91.7742 15.092L93.2226 15.3497C94.3764 15.5461 94.4992 15.7425 94.4992 16.2949C94.4992 16.8472 94.2414 17.0559 93.198 17.0559C91.7128 17.0559 91.3814 16.7981 91.3814 15.8898V15.7671H89.577V15.9266C89.577 17.7433 90.694 18.7253 93.1121 18.7253ZM98.8347 18.7253C99.9763 18.7253 100.602 18.222 100.934 17.7679H101.007V18.6025H102.714V14.9447C102.714 13.2998 101.756 12.3056 99.9395 12.3056C98.1965 12.3056 97.0549 13.2753 97.0549 14.7483V14.8833H98.8102V14.7483C98.8102 14.1222 99.1048 13.9136 99.8535 13.9136C100.578 13.9136 100.971 14.0486 100.971 14.7728V14.9692L98.8593 15.2884C97.5827 15.4847 96.8953 16.0739 96.8953 17.0314C96.8953 18.1484 97.7423 18.7253 98.8347 18.7253ZM98.6506 16.8841C98.6506 16.6263 98.8225 16.5036 99.203 16.4422L100.971 16.1721C100.971 17.1296 100.197 17.326 99.4485 17.326C98.9084 17.326 98.6506 17.2155 98.6506 16.8841ZM107.764 18.6025L110.169 12.4283H108.156L106.683 16.835H106.548L105.075 12.4283H103.026L105.419 18.6025H107.764ZM113.283 18.7253C115.05 18.7253 116.179 17.952 116.179 16.6386V16.5158H114.363V16.5895C114.363 16.97 114.044 17.1296 113.307 17.1296C112.301 17.1296 111.957 16.7859 111.92 15.9266H116.155C116.192 15.718 116.241 15.362 116.241 15.0183C116.241 13.4103 115.148 12.3056 113.295 12.3056C111.368 12.3056 110.189 13.5576 110.189 15.5338C110.189 17.4855 111.159 18.7253 113.283 18.7253ZM113.233 13.8154C114.093 13.8154 114.51 14.1713 114.473 14.8096H111.932C112.006 14.1591 112.35 13.8154 113.233 13.8154Z" fill="#F8F9FD"/>
</svg>
