<svg width="14" height="13" viewBox="0 0 14 13" fill="none" xmlns="http://www.w3.org/2000/svg">
<path d="M12.8043 6.57395L7.28062 1.0503C7.05967 0.829358 6.7528 0.694336 6.41525 0.694336H2.11908C1.79353 0.694336 1.48132 0.823659 1.25112 1.05386C1.02092 1.28405 0.8916 1.59627 0.8916 1.92181V6.21798C0.8916 6.55554 1.02662 6.86241 1.25371 7.08949L6.77735 12.6131C6.9983 12.8341 7.30517 12.9691 7.64272 12.9691C7.98028 12.9691 8.28715 12.8341 8.50809 12.607L12.8043 8.31083C13.0313 8.08988 13.1664 7.78301 13.1664 7.44546C13.1664 7.1079 13.0252 6.7949 12.8043 6.57395ZM3.03968 3.76303C2.79552 3.76303 2.56136 3.66604 2.38872 3.49339C2.21607 3.32074 2.11908 3.08658 2.11908 2.84242C2.11908 2.59826 2.21607 2.3641 2.38872 2.19145C2.56136 2.0188 2.79552 1.92181 3.03968 1.92181C3.28384 1.92181 3.518 2.0188 3.69065 2.19145C3.8633 2.3641 3.96029 2.59826 3.96029 2.84242C3.96029 3.08658 3.8633 3.32074 3.69065 3.49339C3.518 3.66604 3.28384 3.76303 3.03968 3.76303ZM10.2634 8.83864L7.64272 11.4593L5.02206 8.83864C4.74588 8.55632 4.57403 8.17581 4.57403 7.75233C4.57403 7.34539 4.73568 6.95513 5.02343 6.66738C5.31117 6.37963 5.70144 6.21798 6.10838 6.21798C6.53186 6.21798 6.91851 6.38983 7.19469 6.67215L7.64272 7.11404L8.09075 6.66601C8.36693 6.38983 8.75359 6.21798 9.17707 6.21798C9.584 6.21798 9.97427 6.37963 10.262 6.66738C10.5498 6.95513 10.7114 7.34539 10.7114 7.75233C10.7114 8.17581 10.5396 8.56246 10.2634 8.83864Z" fill="#F8F9FD"/>
</svg>
