<svg width="241" height="132" viewBox="0 0 241 132" fill="none" xmlns="http://www.w3.org/2000/svg">
<rect width="241" height="132" fill="url(#paint0_linear_24_176)"/>
<path d="M108.06 78.36C114.9 78.36 117.492 74.904 117.492 71.052C117.492 67.524 115.764 64.86 110.688 63.888L106.404 63.06C103.596 62.52 102.948 62.16 102.948 60.612C102.948 59.1 103.92 58.416 107.016 58.416C110.58 58.416 111.624 59.244 111.624 61.764V62.16H116.952V61.872C116.952 57.084 114.072 53.52 107.196 53.52C100.284 53.52 97.584 57.156 97.584 60.828C97.584 64.572 99.528 66.912 104.136 67.704L108.384 68.46C111.768 69.036 112.128 69.612 112.128 71.232C112.128 72.852 111.372 73.464 108.312 73.464C103.956 73.464 102.984 72.708 102.984 70.044V69.684H97.692V70.152C97.692 75.48 100.968 78.36 108.06 78.36ZM129.353 78L131.729 69.396L132.629 64.644H133.025L133.925 69.396L136.265 78H143.321L147.533 59.892H141.845L140.585 68.28L139.937 73.68H139.577L138.605 68.28L136.373 59.892H129.497L127.301 68.244L126.293 73.68H125.897L125.213 68.244L124.025 59.892H118.085L122.297 78H129.353ZM154.025 57.84V53.88H148.661L148.733 57.84H154.025ZM154.133 78V59.892H148.733V78H154.133ZM162.216 84.048V75.624H162.396C163.224 77.172 164.988 78.36 167.868 78.36C172.764 78.36 175.536 74.652 175.536 68.964C175.536 63.24 172.872 59.532 167.76 59.532C165.06 59.532 162.972 60.612 162 62.556H161.82V59.892H156.816V84.048H162.216ZM162.216 70.404V67.488C162.216 65.04 163.62 64.14 166.176 64.14C169.308 64.14 170.136 65.652 170.136 68.964C170.136 72.24 169.308 73.752 166.176 73.752C163.62 73.752 162.216 72.852 162.216 70.404ZM186.904 78.36C192.088 78.36 195.4 76.092 195.4 72.24V71.88H190.072V72.096C190.072 73.212 189.136 73.68 186.976 73.68C184.024 73.68 183.016 72.672 182.908 70.152H195.328C195.436 69.54 195.58 68.496 195.58 67.488C195.58 62.772 192.376 59.532 186.94 59.532C181.288 59.532 177.832 63.204 177.832 69C177.832 74.724 180.676 78.36 186.904 78.36ZM186.76 63.96C189.28 63.96 190.504 65.004 190.396 66.876H182.944C183.16 64.968 184.168 63.96 186.76 63.96Z" fill="white"/>
<path d="M86.1909 56.8037C85.3039 54.9457 83.6993 53.5686 80.8613 51.5917L57.4977 62.2331C56.4839 62.6948 55.2789 62.2664 54.8062 61.2762C54.3335 60.2861 54.772 59.1091 55.7858 58.6474L77.0074 48.9817L76.5611 48.682C72.3453 45.8511 70.2374 44.4356 67.8164 44.101C67.3875 44.0417 66.9549 44.0084 66.521 44.0011C64.071 43.9602 61.7183 45.0318 57.0128 47.175C52.3073 49.3182 49.9546 50.3898 48.4119 52.2492C48.1386 52.5785 47.8867 52.9237 47.6575 53.2827C46.3637 55.3093 46.1189 57.7963 45.6293 62.7704L45.4811 64.2758C44.9243 69.9319 44.646 72.7599 45.8091 75.1963C46.6961 77.0543 48.3007 78.4314 51.1387 80.4083L74.5023 69.7669C75.5161 69.3052 76.7211 69.7336 77.1938 70.7238C77.6665 71.7139 77.228 72.8909 76.2142 73.3527L54.9926 83.0183L55.4388 83.318C59.6546 86.1489 61.7626 87.5644 64.1836 87.899C64.6125 87.9583 65.0451 87.9916 65.479 87.9989C67.929 88.0398 70.2818 86.9682 74.9872 84.825C79.6926 82.6819 82.0454 81.6102 83.5881 79.7508C83.8614 79.4215 84.1133 79.0763 84.3425 78.7174C85.6363 76.6907 85.8811 74.2037 86.3707 69.2296L86.5189 67.7242C87.0757 62.0681 87.354 59.2401 86.1909 56.8037Z" fill="#0F62FF"/>
<defs>
<linearGradient id="paint0_linear_24_176" x1="0" y1="66" x2="241" y2="66" gradientUnits="userSpaceOnUse">
<stop stop-color="#5096F2"/>
<stop offset="1" stop-color="#062540"/>
</linearGradient>
</defs>
</svg>
