<svg width="35" height="36" viewBox="0 0 35 36" fill="none" xmlns="http://www.w3.org/2000/svg">
<rect x="0.609406" y="0.756836" width="34.3693" height="34.3693" rx="12.2748" fill="#393939"/>
<path d="M18.4078 16.1009H17.1803V14.8734H18.4078V16.1009ZM18.4078 21.0108H17.1803V17.3283H18.4078V21.0108ZM17.7941 11.8047C16.9881 11.8047 16.19 11.9634 15.4454 12.2719C14.7008 12.5803 14.0242 13.0324 13.4543 13.6023C12.3033 14.7533 11.6567 16.3143 11.6567 17.9421C11.6567 19.5698 12.3033 21.1309 13.4543 22.2819C14.0242 22.8518 14.7008 23.3038 15.4454 23.6123C16.19 23.9207 16.9881 24.0795 17.7941 24.0795C19.4218 24.0795 20.9829 23.4328 22.1339 22.2819C23.2849 21.1309 23.9315 19.5698 23.9315 17.9421C23.9315 17.1361 23.7727 16.338 23.4643 15.5934C23.1559 14.8488 22.7038 14.1722 22.1339 13.6023C21.564 13.0324 20.8874 12.5803 20.1428 12.2719C19.3981 11.9634 18.6001 11.8047 17.7941 11.8047Z" fill="#F8F9FD"/>
</svg>
